<svg viewBox="0 0 64 66" fill="none" xmlns="http://www.w3.org/2000/svg">
<path d="M35.0397 63.1975C32.8481 63.0011 30.7159 62.3611 28.7665 61.3142C26.8171 60.2673 25.0891 58.8345 23.6825 57.0985L6.93487 36.6281C5.03325 34.3037 3.76193 31.5065 3.24896 28.5183C2.73598 25.5302 2.99946 22.4565 4.01287 19.607C5.02627 16.7574 6.75381 14.2325 9.0215 12.2866C11.2892 10.3406 14.017 9.04234 16.9302 8.52247L42.4785 3.95926C43.9407 3.6958 45.4301 3.62844 46.9094 3.75887C49.51 3.9882 52.0199 4.85123 54.2305 6.27615C56.3821 7.66081 58.2082 9.51723 59.5775 11.7119C60.9679 13.9348 61.8381 16.4573 62.12 19.0821C62.4019 21.7069 62.0878 24.3626 61.2023 26.8414L52.393 51.8664C51.1186 55.5684 48.6342 58.7031 45.3617 60.738C42.2604 62.6539 38.6477 63.5148 35.0397 63.1975ZM46.1927 10.1589C45.2466 10.0755 44.2939 10.1191 43.3589 10.2886L25.1724 13.5584C23.32 13.8914 21.5861 14.7191 20.145 15.9582C18.704 17.1973 17.6066 18.804 16.9633 20.6168C16.32 22.4296 16.1535 24.3845 16.4804 26.2848C16.8074 28.1852 17.6164 29.9639 18.826 31.4422L30.7159 45.9757C31.9255 47.4544 33.4931 48.5804 35.2612 49.2404C37.0292 49.9003 38.9352 50.071 40.7874 49.7352C42.6396 49.3994 44.3727 48.569 45.8122 47.3275C47.2517 46.086 48.3469 44.4773 48.9875 42.6631L55.2792 24.8626C55.8453 23.2848 56.0473 21.5938 55.8695 19.9221C55.6916 18.2504 55.1387 16.6434 54.254 15.2274C53.3744 13.8089 52.1909 12.6151 50.7935 11.737C49.3962 10.8589 47.822 10.3196 46.1911 10.1603L46.1927 10.1589Z" />
</svg>
