<svg viewBox="0 0 50 19" fill="none" xmlns="http://www.w3.org/2000/svg">
<path d="M18.1319 0.329637H22.1198V5.02748H22.5423L27.5711 0.329637H33.0017L25.9532 6.57996L33.8261 13.1125H28.2924L22.5423 8.20303H22.1198V13.1125H18.1319V0.329637ZM6.32258 8.09213H10.8051L8.52776 3.29351L6.32258 8.09213ZM6.32258 8.09213H10.8051L8.52776 3.29351L6.32258 8.09213ZM6.32258 8.09213H10.8051L8.52776 3.29351L6.32258 8.09213ZM6.25042 0.329637H10.8155L17.1014 13.1025H13.2062L12.1139 10.8443H5.00354L3.97307 13.1025H0.057251L6.25042 0.329637ZM6.25042 0.329637H10.8155L17.1014 13.1025H13.2062L12.1139 10.8443H5.00354L3.97307 13.1025H0.057251L6.25042 0.329637ZM6.25042 0.329637H10.8155L17.1014 13.1025H13.2062L12.1139 10.8443H5.00354L3.97307 13.1025H0.057251L6.25042 0.329637ZM47.3564 3.83788L47.8716 0.642177C46.0502 0.289805 44.2034 0.0774647 42.3482 0.00706674C40.143 -0.0433676 38.2572 0.178429 37.6801 0.279202C36.6084 0.460689 35.7118 0.803509 35.0008 1.30757C34.2777 1.82643 33.7259 2.54149 33.4139 3.3641C33.0635 4.24116 32.8884 5.35005 32.8884 6.71102C32.8884 8.07198 33.0635 9.18096 33.4139 10.0379C33.7293 10.8476 34.2767 11.5511 34.9906 12.0641C35.6912 12.548 36.5878 12.8908 37.6595 13.0622C38.9452 13.2518 40.2442 13.3428 41.5444 13.3343C44.3473 13.3343 47.48 12.5682 48.0673 12.3262V6.39848H42.0391V8.81799H44.6565V9.86641C43.6308 10.0657 42.5898 10.1803 41.5444 10.2092C36.8866 10.3302 36.5672 8.55588 36.5672 6.67071C36.5672 4.9972 37.1649 3.61608 39.3186 3.34395C41.4723 3.07172 44.2134 3.2129 47.3564 3.83788Z" />
<path d="M22.9133 14.8566V16.4897H20.9244V14.8566H20.1207V18.5362H20.9244V16.8224H22.9133V18.1431C22.9145 18.2133 22.9322 18.2823 22.9649 18.3447C22.9951 18.3945 23.0376 18.436 23.0885 18.4657C23.1389 18.4961 23.1949 18.5167 23.2533 18.5262C23.3044 18.5345 23.3562 18.538 23.4079 18.5362H23.7171V14.8566H22.9133Z" />
<path d="M38.6282 18.5262V14.8465H37.8449L36.2684 17.5685L34.6608 14.8465H33.8673V18.5262H34.2795V15.6732L35.9695 18.5262H36.1756L37.8243 15.6934V18.1229C37.8255 18.1931 37.8432 18.2621 37.8759 18.3246C37.9062 18.3743 37.9487 18.4159 37.9995 18.4455C38.0499 18.476 38.106 18.4965 38.1644 18.5061C38.2155 18.5144 38.2673 18.5177 38.319 18.5161L38.6282 18.5262Z" />
<path d="M43.6774 18.5262L41.668 14.7659H41.431L39.37 18.5262H39.844L40.483 17.3568H41.9463L41.7401 16.9838H40.689L41.3692 15.7437L42.6985 18.2338C42.737 18.3269 42.8058 18.4048 42.8943 18.4556C42.9843 18.5084 43.0885 18.533 43.1931 18.5262H43.6774Z" />
<path d="M47.8612 14.8566C47.8367 14.855 47.8121 14.8585 47.7891 14.8667C47.7587 14.866 47.7291 14.8768 47.7066 14.8969C47.6493 14.9314 47.6143 14.9925 47.614 15.0583V17.4274L44.9347 14.8566H44.4194V18.5362H44.8935V15.764L47.614 18.4455C47.7272 18.5464 47.8818 18.5362 48.0261 18.5362H48.0776V14.8566H47.8612Z" />
<path d="M26.7673 14.776H26.5303L24.4694 18.5363H24.9434L26.4685 15.7539L27.1177 16.9838H26.0563L25.8502 17.3568H27.3238L27.7875 18.2338C27.826 18.3269 27.8949 18.4048 27.9832 18.4556C28.0733 18.5084 28.1775 18.533 28.2822 18.5262H28.7768L26.7673 14.776Z" />
<path d="M31.9404 18.2338L30.7553 16.8527H30.3431V18.5362H29.5393V14.8566H31.0129C31.0129 14.8566 31.6208 14.8465 32.0228 15.0381C32.4247 15.2296 32.5895 15.4918 32.5895 15.8345C32.5895 16.1773 32.3732 16.5705 31.6106 16.7721L33.146 18.5262H32.5277C32.4328 18.5241 32.3388 18.5071 32.2495 18.4758C32.1052 18.4355 31.9404 18.2338 31.9404 18.2338ZM30.3328 15.1792V16.5705H30.7038C30.7038 16.5705 31.0748 16.5805 31.3118 16.4394C31.5488 16.2982 31.724 16.1269 31.724 15.8546C31.7131 15.5821 31.5396 15.3413 31.2808 15.2397C31.1505 15.1863 31.0097 15.1622 30.8686 15.1692H30.3328V15.1792Z" />
<path d="M16.9365 16.8124H17.0602V17.5181C17.1632 17.4077 17.3093 17.3454 17.462 17.3466C17.7608 17.3466 17.967 17.5584 17.967 17.8709C17.967 18.2338 17.7196 18.4657 17.3384 18.4657C17.2004 18.4642 17.064 18.4368 16.9365 18.385V16.8124ZM17.0602 18.3044C17.1495 18.3358 17.2435 18.3528 17.3384 18.3548C17.4669 18.3603 17.5923 18.3155 17.687 18.2304C17.7817 18.1453 17.838 18.0268 17.8433 17.9011V17.881C17.8433 17.629 17.6784 17.4475 17.4518 17.4475C17.3074 17.4475 17.1941 17.508 17.0602 17.6592V18.3044Z" />
<path d="M18.3276 19H18.204L18.5955 18.2338L18.1216 17.3769H18.2452L18.6574 18.1229L19.0489 17.3769H19.1727L18.3276 19Z" />
<path d="M49.1699 2.48706C48.9651 2.48696 48.7686 2.4072 48.6239 2.26526C48.4785 2.11969 48.3971 1.92435 48.3971 1.72089C48.3974 1.41523 48.5857 1.13985 48.8743 1.02293C49.1629 0.906014 49.4951 0.970585 49.7161 1.18656C49.8613 1.32812 49.943 1.5203 49.943 1.72089C49.943 1.92139 49.8613 2.11367 49.7161 2.25513C49.5725 2.39985 49.3762 2.48324 49.1699 2.48706ZM49.1699 1.09581C48.8199 1.09868 48.5386 1.37845 48.5414 1.72089C48.5443 2.06324 48.8303 2.33852 49.1803 2.33575C49.5303 2.33298 49.8117 2.05321 49.8089 1.71077C49.8069 1.54819 49.7404 1.39278 49.6234 1.2773C49.5079 1.15312 49.3413 1.08645 49.1699 1.09581ZM49.3657 2.14424V2.13421L49.3555 2.0939V2.02331C49.3555 1.93256 49.3349 1.8721 49.2833 1.85195C49.2343 1.83217 49.1818 1.82195 49.1287 1.82167H49.0257V2.14424H48.8505V1.29745H49.1597C49.2397 1.29688 49.3195 1.3071 49.3967 1.32773C49.4861 1.36508 49.5403 1.45487 49.5307 1.54953C49.5395 1.62002 49.5025 1.68842 49.4379 1.72089L49.3761 1.75108C49.4148 1.76273 49.4478 1.78785 49.4688 1.82167C49.5006 1.85844 49.5188 1.90458 49.5203 1.95272V2.07374C49.5203 2.0939 49.5203 2.10393 49.5307 2.11405L49.5409 2.14424H49.3657ZM49.1391 1.69061C49.1843 1.68889 49.2293 1.68211 49.273 1.67046C49.3197 1.65346 49.3492 1.60818 49.3451 1.55956C49.3434 1.51744 49.3248 1.4777 49.2937 1.44866C49.2376 1.42803 49.1782 1.41781 49.1185 1.41848H49.0051V1.68058H49.1391V1.69061Z" />
</svg>
