<svg viewBox="0 0 25 25" fill="none" xmlns="http://www.w3.org/2000/svg">
<path d="M12.5104 16.2499C13.2521 16.2499 13.9771 16.03 14.5938 15.6179C15.2105 15.2059 15.6912 14.6202 15.975 13.935C16.2588 13.2498 16.3331 12.4958 16.1884 11.7683C16.0437 11.0409 15.6865 10.3727 15.1621 9.84826C14.6376 9.32382 13.9695 8.96667 13.242 8.82197C12.5146 8.67728 11.7606 8.75154 11.0754 9.03537C10.3902 9.3192 9.80448 9.79984 9.39243 10.4165C8.98037 11.0332 8.76044 11.7582 8.76044 12.4999C8.76044 13.4945 9.15553 14.4483 9.85879 15.1516C10.562 15.8548 11.5159 16.2499 12.5104 16.2499ZM12.5104 0.0019992C11.2385 0.00172073 9.97389 0.195621 8.76044 0.576999V7.49992C9.88678 6.65515 11.2654 6.21544 12.6728 6.25203C14.0803 6.28861 15.4342 6.79934 16.5151 7.70147C17.5961 8.6036 18.3407 9.84428 18.6285 11.2225C18.9163 12.6007 18.7303 14.0357 18.1006 15.295C17.471 16.5543 16.4346 17.5641 15.1593 18.1608C13.8841 18.7575 12.4448 18.9062 11.0745 18.5827C9.70421 18.2592 8.4833 17.4826 7.60956 16.3786C6.73582 15.2745 6.26044 13.9079 6.26044 12.4999V1.66971C3.63291 3.18296 1.64512 5.59982 0.667423 8.47C-0.310277 11.3402 -0.211205 14.4679 0.946181 17.2705C2.10357 20.073 4.24033 22.3592 6.95835 23.7031C9.67638 25.0471 12.7903 25.3571 15.7199 24.5753C18.6495 23.7936 21.1951 21.9735 22.8822 19.4541C24.5694 16.9347 25.2831 13.8879 24.8905 10.8813C24.4978 7.87473 23.0255 5.11342 20.7478 3.11188C18.4702 1.11034 15.5426 0.00506605 12.5104 0.0019992Z" />
</svg>
