<svg width="35" height="21" viewBox="0 0 35 21" fill="none" xmlns="http://www.w3.org/2000/svg">
<path d="M0 0.676666L2.94875 7.37042L5.8975 0.676666H0ZM2.94875 11.7615C3.96667 11.7615 4.795 10.9375 4.795 9.92396C4.795 8.90458 3.96667 8.08354 2.94875 8.08354C2.7028 8.07662 2.45796 8.11908 2.2287 8.20842C1.99945 8.29775 1.79044 8.43215 1.61402 8.60367C1.43761 8.77519 1.29738 8.98033 1.20162 9.20698C1.10587 9.43363 1.05653 9.67718 1.05653 9.92323C1.05653 10.1693 1.10587 10.4128 1.20162 10.6395C1.29738 10.8661 1.43761 11.0713 1.61402 11.2428C1.79044 11.4143 1.99945 11.5487 2.2287 11.638C2.45796 11.7274 2.7028 11.7698 2.94875 11.7629V11.7615ZM1.35333 16.6644C1.35333 18.06 2.61042 20.3233 6.18771 20.3233C9.765 20.3233 11.0221 18.5908 11.0221 16.6629V0.679583H7.82979L7.83125 17.22C7.83125 18.1242 7.09771 18.8825 6.18917 18.8825C5.75378 18.8829 5.33602 18.7105 5.02761 18.4032C4.7192 18.0959 4.54533 17.6787 4.54417 17.2433L4.54271 13.8731H1.35333V16.6644ZM13.4415 20.0346V0.676666H19.8202C21.0525 0.676666 23.0096 1.68729 23.0096 3.83104V7.12833C23.0096 8.09375 22.1638 9.80146 20.9096 9.80146C22.1638 9.80146 23.0096 10.8835 23.0096 11.7046V17.5073C23.0096 18.4931 22.2133 20.0346 19.8202 20.0346H13.4415ZM18.3706 9.01104C19.5315 9.01104 19.8217 8.81563 19.8217 5.78229C19.8217 2.74896 19.53 2.50687 18.3706 2.50687H16.6279V9.00667L18.3706 9.01104ZM19.8217 14.5688C19.8217 11.534 19.8217 10.6458 18.5617 10.6458H16.6279V18.445L18.5617 18.4494C19.8202 18.4494 19.8202 17.6021 19.8202 14.5702L19.8217 14.5688ZM25.3327 20.0346H35V13.8717H31.8077L31.8106 17.2404C31.8106 17.6765 31.6374 18.0947 31.329 18.4031C31.0207 18.7115 30.6024 18.8847 30.1664 18.8847C29.7303 18.8847 29.312 18.7115 29.0037 18.4031C28.6953 18.0947 28.5221 17.6765 28.5221 17.2404V0.678124H25.3313L25.3327 20.0346Z" />
</svg>
