<svg viewBox="0 0 202 57" fill="none" xmlns="http://www.w3.org/2000/svg">
<path d="M30.5821 55.1578C28.6693 54.9865 26.8084 54.4278 25.107 53.5141C23.4055 52.6004 21.8974 51.3499 20.6697 49.8347L6.05264 31.9685C4.39293 29.9397 3.28334 27.4984 2.83563 24.8904C2.38791 22.2824 2.61787 19.5997 3.50235 17.1127C4.38683 14.6256 5.89461 12.4219 7.87382 10.7235C9.85303 9.02513 12.2338 7.89201 14.7764 7.43828L37.0746 3.45558C38.3508 3.22564 39.6507 3.16685 40.9418 3.28068C43.2116 3.48084 45.4022 4.23408 47.3315 5.47773C49.2094 6.68624 50.8032 8.3065 51.9984 10.222C53.2119 12.162 53.9714 14.3637 54.2174 16.6546C54.4634 18.9454 54.1892 21.2633 53.4164 23.4268L45.7278 45.2682C44.6156 48.4993 42.4472 51.2352 39.591 53.0112C36.8843 54.6834 33.7311 55.4347 30.5821 55.1578ZM40.3163 8.86653C39.4905 8.79373 38.659 8.83178 37.843 8.97972L21.9701 11.8335C20.3533 12.1242 18.84 12.8466 17.5823 13.9281C16.3245 15.0095 15.3668 16.4119 14.8053 17.9941C14.2438 19.5762 14.0985 21.2824 14.3839 22.941C14.6693 24.5996 15.3753 26.1521 16.431 27.4423L26.8084 40.1269C27.8641 41.4175 29.2323 42.4002 30.7754 42.9762C32.3185 43.5523 33.9821 43.7012 35.5986 43.4082C37.2152 43.1151 38.7278 42.3903 39.9842 41.3067C41.2406 40.2232 42.1964 38.8191 42.7555 37.2357L48.2469 21.6997C48.7409 20.3227 48.9173 18.8467 48.762 17.3877C48.6068 15.9287 48.1242 14.5262 47.3521 13.2902C46.5844 12.0522 45.5514 11.0103 44.3318 10.2439C43.1122 9.47744 41.7383 9.00678 40.3148 8.86778L40.3163 8.86653Z" />
<path d="M77.97 37.28H70.11L68.85 41H63.48L71.1 19.94H77.04L84.66 41H79.23L77.97 37.28ZM76.65 33.32L74.04 25.61L71.46 33.32H76.65ZM103.509 24.26V41H98.3791V38.72C97.8591 39.46 97.1491 40.06 96.2491 40.52C95.3691 40.96 94.3891 41.18 93.3091 41.18C92.0291 41.18 90.8991 40.9 89.9191 40.34C88.9391 39.76 88.1791 38.93 87.6391 37.85C87.0991 36.77 86.8291 35.5 86.8291 34.04V24.26H91.9291V33.35C91.9291 34.47 92.2191 35.34 92.7991 35.96C93.3791 36.58 94.1591 36.89 95.1391 36.89C96.1391 36.89 96.9291 36.58 97.5091 35.96C98.0891 35.34 98.3791 34.47 98.3791 33.35V24.26H103.509ZM106.174 32.6C106.174 30.88 106.494 29.37 107.134 28.07C107.794 26.77 108.684 25.77 109.804 25.07C110.924 24.37 112.174 24.02 113.554 24.02C114.654 24.02 115.654 24.25 116.554 24.71C117.474 25.17 118.194 25.79 118.714 26.57V18.8H123.844V41H118.714V38.6C118.234 39.4 117.544 40.04 116.644 40.52C115.764 41 114.734 41.24 113.554 41.24C112.174 41.24 110.924 40.89 109.804 40.19C108.684 39.47 107.794 38.46 107.134 37.16C106.494 35.84 106.174 34.32 106.174 32.6ZM118.714 32.63C118.714 31.35 118.354 30.34 117.634 29.6C116.934 28.86 116.074 28.49 115.054 28.49C114.034 28.49 113.164 28.86 112.444 29.6C111.744 30.32 111.394 31.32 111.394 32.6C111.394 33.88 111.744 34.9 112.444 35.66C113.164 36.4 114.034 36.77 115.054 36.77C116.074 36.77 116.934 36.4 117.634 35.66C118.354 34.92 118.714 33.91 118.714 32.63ZM130.135 22.52C129.235 22.52 128.495 22.26 127.915 21.74C127.355 21.2 127.075 20.54 127.075 19.76C127.075 18.96 127.355 18.3 127.915 17.78C128.495 17.24 129.235 16.97 130.135 16.97C131.015 16.97 131.735 17.24 132.295 17.78C132.875 18.3 133.165 18.96 133.165 19.76C133.165 20.54 132.875 21.2 132.295 21.74C131.735 22.26 131.015 22.52 130.135 22.52ZM132.685 24.26V41H127.555V24.26H132.685ZM144.023 41.24C142.383 41.24 140.903 40.89 139.583 40.19C138.283 39.49 137.253 38.49 136.493 37.19C135.753 35.89 135.383 34.37 135.383 32.63C135.383 30.91 135.763 29.4 136.523 28.1C137.283 26.78 138.323 25.77 139.643 25.07C140.963 24.37 142.443 24.02 144.083 24.02C145.723 24.02 147.203 24.37 148.523 25.07C149.843 25.77 150.883 26.78 151.643 28.1C152.403 29.4 152.783 30.91 152.783 32.63C152.783 34.35 152.393 35.87 151.613 37.19C150.853 38.49 149.803 39.49 148.463 40.19C147.143 40.89 145.663 41.24 144.023 41.24ZM144.023 36.8C145.003 36.8 145.833 36.44 146.513 35.72C147.213 35 147.563 33.97 147.563 32.63C147.563 31.29 147.223 30.26 146.543 29.54C145.883 28.82 145.063 28.46 144.083 28.46C143.083 28.46 142.253 28.82 141.593 29.54C140.933 30.24 140.603 31.27 140.603 32.63C140.603 33.97 140.923 35 141.563 35.72C142.223 36.44 143.043 36.8 144.023 36.8ZM165.705 24.08C167.665 24.08 169.225 24.72 170.385 26C171.565 27.26 172.155 29 172.155 31.22V41H167.055V31.91C167.055 30.79 166.765 29.92 166.185 29.3C165.605 28.68 164.825 28.37 163.845 28.37C162.865 28.37 162.085 28.68 161.505 29.3C160.925 29.92 160.635 30.79 160.635 31.91V41H155.505V24.26H160.635V26.48C161.155 25.74 161.855 25.16 162.735 24.74C163.615 24.3 164.605 24.08 165.705 24.08ZM178.299 22.52C177.399 22.52 176.659 22.26 176.079 21.74C175.519 21.2 175.239 20.54 175.239 19.76C175.239 18.96 175.519 18.3 176.079 17.78C176.659 17.24 177.399 16.97 178.299 16.97C179.179 16.97 179.899 17.24 180.459 17.78C181.039 18.3 181.329 18.96 181.329 19.76C181.329 20.54 181.039 21.2 180.459 21.74C179.899 22.26 179.179 22.52 178.299 22.52ZM180.849 24.26V41H175.719V24.26H180.849ZM183.547 32.63C183.547 30.89 183.897 29.37 184.597 28.07C185.317 26.77 186.307 25.77 187.567 25.07C188.847 24.37 190.307 24.02 191.947 24.02C194.047 24.02 195.797 24.57 197.197 25.67C198.617 26.77 199.547 28.32 199.987 30.32H194.527C194.067 29.04 193.177 28.4 191.857 28.4C190.917 28.4 190.167 28.77 189.607 29.51C189.047 30.23 188.767 31.27 188.767 32.63C188.767 33.99 189.047 35.04 189.607 35.78C190.167 36.5 190.917 36.86 191.857 36.86C193.177 36.86 194.067 36.22 194.527 34.94H199.987C199.547 36.9 198.617 38.44 197.197 39.56C195.777 40.68 194.027 41.24 191.947 41.24C190.307 41.24 188.847 40.89 187.567 40.19C186.307 39.49 185.317 38.49 184.597 37.19C183.897 35.89 183.547 34.37 183.547 32.63Z" />
</svg>
