<svg width="93" height="91" viewBox="0 0 93 91" fill="none" xmlns="http://www.w3.org/2000/svg">
<path d="M63.8166 0.927539C68.3337 0.369259 72.9182 1.01086 77.1085 2.78776C81.2989 4.56466 84.9471 7.41414 87.686 11.0493C90.4249 14.6845 92.1578 18.9771 92.7102 23.495C93.2626 28.0128 92.6151 32.5965 90.8327 36.7845L74.7683 74.5316C72.9882 78.7137 70.1392 82.3539 66.5074 85.0867C62.8755 87.8195 58.5886 89.5488 54.0771 90.1009C49.5655 90.6529 44.9882 90.0083 40.8045 88.2319C36.6209 86.4554 32.9782 83.6095 30.2423 79.98L5.59324 47.2648C2.85674 43.6343 1.12374 39.3477 0.568332 34.8355C0.0129229 30.3233 0.654667 25.7444 2.42908 21.5587C4.2035 17.3731 7.0481 13.728 10.6772 10.9897C14.3063 8.25144 18.592 6.51633 23.1039 5.9587L63.8166 0.927539Z" fill-opacity="0.1"/>
</svg>
